<mxfile host="65bd71144e">
    <diagram id="TtalKkak-Container-Diagram" name="컨테이너 다이어그램">
        <mxGraphModel dx="778" dy="593" grid="1" gridSize="10" guides="1" tooltips="1" connect="1" arrows="1" fold="1" page="1" pageScale="1" pageWidth="1600" pageHeight="1400" math="0" shadow="0">
            <root>
                <mxCell id="0"/>
                <mxCell id="1" parent="0"/>
                <mxCell id="title" value="TtalKkak 컨테이너 다이어그램" style="text;html=1;strokeColor=none;fillColor=none;align=center;verticalAlign=middle;whiteSpace=wrap;rounded=0;fontSize=20;fontStyle=1" parent="1" vertex="1">
                    <mxGeometry x="600" y="20" width="400" height="30" as="geometry"/>
                </mxCell>
                <mxCell id="users" value="👥 사용자&#10;PM, 개발자, 팀원" style="ellipse;whiteSpace=wrap;html=1;fillColor=#e1d5e7;strokeColor=#9673a6;fontSize=14;fontStyle=1;" parent="1" vertex="1">
                    <mxGeometry x="50" y="100" width="150" height="80" as="geometry"/>
                </mxCell>
                <mxCell id="client-layer-box" value="" style="rounded=1;whiteSpace=wrap;html=1;fillColor=none;strokeColor=#7b1fa2;strokeWidth=2;dashed=1;" parent="1" vertex="1">
                    <mxGeometry x="300" y="80" width="700" height="120" as="geometry"/>
                </mxCell>
                <mxCell id="client-layer-label" value="클라이언트 레이어" style="text;html=1;strokeColor=none;fillColor=none;align=left;verticalAlign=top;whiteSpace=wrap;rounded=0;fontSize=14;fontStyle=1;fontColor=#7b1fa2" parent="1" vertex="1">
                    <mxGeometry x="310" y="85" width="120" height="20" as="geometry"/>
                </mxCell>
                <mxCell id="web-dashboard" value="🌐 웹 대시보드&#10;React + TypeScript&#10;Port: 3000&#10;&#10;• 프로젝트 관리&#10;• 대시보드&#10;• 설정 관리" style="rounded=1;whiteSpace=wrap;html=1;fillColor=#f3e5f5;strokeColor=#7b1fa2;fontSize=12;" parent="1" vertex="1">
                    <mxGeometry x="320" y="110" width="180" height="80" as="geometry"/>
                </mxCell>
                <mxCell id="slack-client" value="📱 Slack 클라이언트&#10;@slack/bolt&#10;&#10;• 명령어 처리&#10;• 파일 업로드&#10;• 실시간 알림" style="rounded=1;whiteSpace=wrap;html=1;fillColor=#f3e5f5;strokeColor=#7b1fa2;fontSize=12;" parent="1" vertex="1">
                    <mxGeometry x="520" y="110" width="180" height="80" as="geometry"/>
                </mxCell>
                <mxCell id="chrome-extension" value="🔗 Chrome 확장&#10;JavaScript&#10;&#10;• 웹 페이지 연동&#10;• 빠른 업무 생성" style="rounded=1;whiteSpace=wrap;html=1;fillColor=#f3e5f5;strokeColor=#7b1fa2;fontSize=12;" parent="1" vertex="1">
                    <mxGeometry x="720" y="110" width="180" height="80" as="geometry"/>
                </mxCell>
                <mxCell id="api-gateway" value="🚪 API 게이트웨이&#10;Express.js&#10;Port: 3500&#10;&#10;• 라우팅&#10;• 인증/인가&#10;• 레이트 리미팅" style="rounded=1;whiteSpace=wrap;html=1;fillColor=#dae8fc;strokeColor=#6c8ebf;fontSize=12;fontStyle=1;" parent="1" vertex="1">
                    <mxGeometry x="550" y="250" width="200" height="80" as="geometry"/>
                </mxCell>
                <mxCell id="backend-layer-box" value="" style="rounded=1;whiteSpace=wrap;html=1;fillColor=none;strokeColor=#f57c00;strokeWidth=2;dashed=1;" parent="1" vertex="1">
                    <mxGeometry x="50" y="380" width="950" height="120" as="geometry"/>
                </mxCell>
                <mxCell id="backend-layer-label" value="백엔드 서비스 레이어" style="text;html=1;strokeColor=none;fillColor=none;align=left;verticalAlign=top;whiteSpace=wrap;rounded=0;fontSize=14;fontStyle=1;fontColor=#f57c00" parent="1" vertex="1">
                    <mxGeometry x="60" y="385" width="150" height="20" as="geometry"/>
                </mxCell>
                <mxCell id="backend-api" value="🔧 백엔드 API&#10;Node.js + Express&#10;Port: 3500&#10;&#10;• 멀티테넌트 지원&#10;• OAuth 인증&#10;• 비즈니스 로직" style="rounded=1;whiteSpace=wrap;html=1;fillColor=#fff3e0;strokeColor=#f57c00;fontSize=12;" parent="1" vertex="1">
                    <mxGeometry x="80" y="410" width="180" height="80" as="geometry"/>
                </mxCell>
                <mxCell id="slack-handler" value="🤖 Slack 핸들러&#10;@slack/bolt&#10;&#10;• 봇 명령 처리&#10;• 이벤트 리스너&#10;• 모달 처리" style="rounded=1;whiteSpace=wrap;html=1;fillColor=#fff3e0;strokeColor=#f57c00;fontSize=12;" parent="1" vertex="1">
                    <mxGeometry x="280" y="410" width="180" height="80" as="geometry"/>
                </mxCell>
                <mxCell id="ai-connector" value="🧠 AI 커넥터&#10;HTTP Client&#10;&#10;• AI 서버 통신&#10;• 2단계 파이프라인&#10;• 에러 처리" style="rounded=1;whiteSpace=wrap;html=1;fillColor=#fff3e0;strokeColor=#f57c00;fontSize=12;" parent="1" vertex="1">
                    <mxGeometry x="480" y="410" width="180" height="80" as="geometry"/>
                </mxCell>
                <mxCell id="file-processor" value="📁 파일 처리기&#10;Multer&#10;&#10;• 파일 업로드&#10;• 타입 검증&#10;• 100MB 제한" style="rounded=1;whiteSpace=wrap;html=1;fillColor=#fff3e0;strokeColor=#f57c00;fontSize=12;" parent="1" vertex="1">
                    <mxGeometry x="680" y="410" width="180" height="80" as="geometry"/>
                </mxCell>
                <mxCell id="business-layer-box" value="" style="rounded=1;whiteSpace=wrap;html=1;fillColor=none;strokeColor=#388e3c;strokeWidth=2;dashed=1;" parent="1" vertex="1">
                    <mxGeometry x="50" y="550" width="950" height="120" as="geometry"/>
                </mxCell>
                <mxCell id="business-layer-label" value="비즈니스 서비스 레이어" style="text;html=1;strokeColor=none;fillColor=none;align=left;verticalAlign=top;whiteSpace=wrap;rounded=0;fontSize=14;fontStyle=1;fontColor=#388e3c" parent="1" vertex="1">
                    <mxGeometry x="60" y="555" width="170" height="20" as="geometry"/>
                </mxCell>
                <mxCell id="notion-service" value="📝 Notion 서비스&#10;@notionhq/client&#10;&#10;• 페이지 생성&#10;• 블록 구조화&#10;• OAuth 관리" style="rounded=1;whiteSpace=wrap;html=1;fillColor=#e8f5e8;strokeColor=#388e3c;fontSize=12;" parent="1" vertex="1">
                    <mxGeometry x="80" y="580" width="180" height="80" as="geometry"/>
                </mxCell>
                <mxCell id="jira-service" value="🎫 JIRA 서비스&#10;Atlassian API&#10;&#10;• 이슈 생성&#10;• Epic/Task 매핑&#10;• 토큰 관리" style="rounded=1;whiteSpace=wrap;html=1;fillColor=#e8f5e8;strokeColor=#388e3c;fontSize=12;" parent="1" vertex="1">
                    <mxGeometry x="280" y="580" width="180" height="80" as="geometry"/>
                </mxCell>
                <mxCell id="task-assigner" value="🎯 업무 배정 서비스&#10;스코어링 알고리즘&#10;&#10;• 스킬 매칭&#10;• 워크로드 분석&#10;• 최적화" style="rounded=1;whiteSpace=wrap;html=1;fillColor=#e8f5e8;strokeColor=#388e3c;fontSize=12;" parent="1" vertex="1">
                    <mxGeometry x="480" y="580" width="180" height="80" as="geometry"/>
                </mxCell>
                <mxCell id="notification-service" value="📢 알림 서비스&#10;Socket.IO&#10;&#10;• 실시간 알림&#10;• WebSocket 관리&#10;• 이벤트 브로드캐스트" style="rounded=1;whiteSpace=wrap;html=1;fillColor=#e8f5e8;strokeColor=#388e3c;fontSize=12;" parent="1" vertex="1">
                    <mxGeometry x="680" y="580" width="180" height="80" as="geometry"/>
                </mxCell>
                <mxCell id="ai-engine-box" value="" style="rounded=1;whiteSpace=wrap;html=1;fillColor=none;strokeColor=#d32f2f;strokeWidth=2;dashed=1;" parent="1" vertex="1">
                    <mxGeometry x="1100" y="380" width="280" height="120" as="geometry"/>
                </mxCell>
                <mxCell id="ai-engine-label" value="AI 엔진" style="text;html=1;strokeColor=none;fillColor=none;align=left;verticalAlign=top;whiteSpace=wrap;rounded=0;fontSize=14;fontStyle=1;fontColor=#d32f2f" parent="1" vertex="1">
                    <mxGeometry x="1110" y="385" width="80" height="20" as="geometry"/>
                </mxCell>
                <mxCell id="ai-server" value="🤖 AI 서버&#10;FastAPI + Python&#10;Runpod GPU&#10;&#10;• WhisperX (음성 전사)&#10;• Qwen3-32B (텍스트 분석)&#10;• 2단계 파이프라인" style="rounded=1;whiteSpace=wrap;html=1;fillColor=#ffebee;strokeColor=#d32f2f;fontSize=12;" parent="1" vertex="1">
                    <mxGeometry x="1120" y="410" width="240" height="80" as="geometry"/>
                </mxCell>
                <mxCell id="data-layer-box" value="" style="rounded=1;whiteSpace=wrap;html=1;fillColor=none;strokeColor=#558b2f;strokeWidth=2;dashed=1;" parent="1" vertex="1">
                    <mxGeometry x="50" y="720" width="700" height="150" as="geometry"/>
                </mxCell>
                <mxCell id="data-layer-label" value="데이터 레이어" style="text;html=1;strokeColor=none;fillColor=none;align=left;verticalAlign=top;whiteSpace=wrap;rounded=0;fontSize=14;fontStyle=1;fontColor=#558b2f" parent="1" vertex="1">
                    <mxGeometry x="60" y="725" width="100" height="20" as="geometry"/>
                </mxCell>
                <mxCell id="postgresql" value="🗃️ PostgreSQL&#10;Port: 5432&#10;&#10;• 멀티테넌트 데이터&#10;• 사용자 정보&#10;• 프로젝트 &amp; 업무&#10;• 연동 설정" style="shape=cylinder3;whiteSpace=wrap;html=1;boundedLbl=1;backgroundOutline=1;size=15;fillColor=#f1f8e9;strokeColor=#558b2f;fontSize=12;" vertex="1" parent="1">
                    <mxGeometry x="80" y="750" width="150" height="100" as="geometry"/>
                </mxCell>
                <mxCell id="redis" value="⚡ Redis&#10;Port: 6379&#10;&#10;• 세션 캐시&#10;• 임시 데이터&#10;• 작업 큐" style="shape=cylinder3;whiteSpace=wrap;html=1;boundedLbl=1;backgroundOutline=1;size=15;fillColor=#f1f8e9;strokeColor=#558b2f;fontSize=12;" vertex="1" parent="1">
                    <mxGeometry x="270" y="750" width="150" height="100" as="geometry"/>
                </mxCell>
                <mxCell id="file-storage" value="📁 파일 저장소&#10;임시 파일&#10;&#10;• 음성 파일&#10;• 전사 결과&#10;• 로그 파일" style="shape=cylinder3;whiteSpace=wrap;html=1;boundedLbl=1;backgroundOutline=1;size=15;fillColor=#f1f8e9;strokeColor=#558b2f;fontSize=12;" vertex="1" parent="1">
                    <mxGeometry x="460" y="750" width="150" height="100" as="geometry"/>
                </mxCell>
                <mxCell id="external-services-box" value="" style="rounded=1;whiteSpace=wrap;html=1;fillColor=none;strokeColor=#616161;strokeWidth=2;dashed=1;" vertex="1" parent="1">
                    <mxGeometry x="850" y="720" width="530" height="150" as="geometry"/>
                </mxCell>
                <mxCell id="external-services-label" value="외부 서비스" style="text;html=1;strokeColor=none;fillColor=none;align=left;verticalAlign=top;whiteSpace=wrap;rounded=0;fontSize=14;fontStyle=1;fontColor=#616161" vertex="1" parent="1">
                    <mxGeometry x="860" y="725" width="100" height="20" as="geometry"/>
                </mxCell>
                <mxCell id="slack-api" value="📱 Slack API&#10;slack.com&#10;&#10;• 봇 토큰&#10;• 웹훅&#10;• 파일 업로드" style="rounded=1;whiteSpace=wrap;html=1;fillColor=#fafafa;strokeColor=#616161;fontSize=12;" vertex="1" parent="1">
                    <mxGeometry x="880" y="750" width="150" height="100" as="geometry"/>
                </mxCell>
                <mxCell id="notion-api" value="📝 Notion API&#10;api.notion.com&#10;&#10;• OAuth 2.0&#10;• 페이지 생성&#10;• 블록 조작" style="rounded=1;whiteSpace=wrap;html=1;fillColor=#fafafa;strokeColor=#616161;fontSize=12;" vertex="1" parent="1">
                    <mxGeometry x="1060" y="750" width="150" height="100" as="geometry"/>
                </mxCell>
                <mxCell id="jira-api" value="🎫 JIRA API&#10;atlassian.com&#10;&#10;• OAuth 2.0&#10;• 이슈 생성&#10;• 프로젝트 관리" style="rounded=1;whiteSpace=wrap;html=1;fillColor=#fafafa;strokeColor=#616161;fontSize=12;" vertex="1" parent="1">
                    <mxGeometry x="1240" y="750" width="150" height="100" as="geometry"/>
                </mxCell>
                <mxCell id="monitoring-box" value="" style="rounded=1;whiteSpace=wrap;html=1;fillColor=none;strokeColor=#00796b;strokeWidth=2;dashed=1;" vertex="1" parent="1">
                    <mxGeometry x="1100" y="550" width="480" height="120" as="geometry"/>
                </mxCell>
                <mxCell id="monitoring-label" value="관찰성 (Observability)" style="text;html=1;strokeColor=none;fillColor=none;align=left;verticalAlign=top;whiteSpace=wrap;rounded=0;fontSize=14;fontStyle=1;fontColor=#00796b" vertex="1" parent="1">
                    <mxGeometry x="1110" y="555" width="160" height="20" as="geometry"/>
                </mxCell>
                <mxCell id="logging" value="📊 로깅&#10;Winston&#10;&#10;• 구조화된 로그&#10;• 에러 추적&#10;• 성능 모니터링" style="rounded=1;whiteSpace=wrap;html=1;fillColor=#e0f2f1;strokeColor=#00796b;fontSize=12;" vertex="1" parent="1">
                    <mxGeometry x="1120" y="580" width="150" height="80" as="geometry"/>
                </mxCell>
                <mxCell id="metrics" value="📈 메트릭&#10;사용자 정의&#10;&#10;• API 응답 시간&#10;• 처리량&#10;• 에러율" style="rounded=1;whiteSpace=wrap;html=1;fillColor=#e0f2f1;strokeColor=#00796b;fontSize=12;" vertex="1" parent="1">
                    <mxGeometry x="1300" y="580" width="150" height="80" as="geometry"/>
                </mxCell>
                <mxCell id="health-check" value="💓 헬스 체크&#10;실시간 모니터링&#10;&#10;• 서비스 상태&#10;• 외부 연동 확인&#10;• 성능 지표" style="rounded=1;whiteSpace=wrap;html=1;fillColor=#e0f2f1;strokeColor=#00796b;fontSize=12;" vertex="1" parent="1">
                    <mxGeometry x="1480" y="580" width="150" height="80" as="geometry"/>
                </mxCell>
                <mxCell id="conn-1" value="" style="endArrow=classic;html=1;rounded=0;strokeWidth=2;strokeColor=#0066cc;" edge="1" parent="1" source="users" target="web-dashboard">
                    <mxGeometry width="50" height="50" relative="1" as="geometry">
                        <mxPoint x="220" y="140" as="sourcePoint"/>
                        <mxPoint x="320" y="150" as="targetPoint"/>
                    </mxGeometry>
                </mxCell>
                <mxCell id="conn-2" value="" style="endArrow=classic;html=1;rounded=0;strokeWidth=2;strokeColor=#0066cc;" edge="1" parent="1" source="users" target="slack-client">
                    <mxGeometry width="50" height="50" relative="1" as="geometry">
                        <mxPoint x="220" y="150" as="sourcePoint"/>
                        <mxPoint x="520" y="150" as="targetPoint"/>
                    </mxGeometry>
                </mxCell>
                <mxCell id="conn-3" value="" style="endArrow=classic;html=1;rounded=0;strokeWidth=2;strokeColor=#0066cc;" edge="1" parent="1" source="users" target="chrome-extension">
                    <mxGeometry width="50" height="50" relative="1" as="geometry">
                        <mxPoint x="220" y="160" as="sourcePoint"/>
                        <mxPoint x="720" y="150" as="targetPoint"/>
                    </mxGeometry>
                </mxCell>
                <mxCell id="conn-4" value="HTTP/HTTPS" style="endArrow=classic;html=1;rounded=0;strokeWidth=2;strokeColor=#6c8ebf;" edge="1" parent="1" source="web-dashboard" target="api-gateway">
                    <mxGeometry width="50" height="50" relative="1" as="geometry">
                        <mxPoint x="410" y="200" as="sourcePoint"/>
                        <mxPoint x="550" y="250" as="targetPoint"/>
                        <mxPoint as="offset"/>
                    </mxGeometry>
                </mxCell>
                <mxCell id="conn-5" value="HTTP/HTTPS" style="endArrow=classic;html=1;rounded=0;strokeWidth=2;strokeColor=#6c8ebf;" edge="1" parent="1" source="chrome-extension" target="api-gateway">
                    <mxGeometry width="50" height="50" relative="1" as="geometry">
                        <mxPoint x="810" y="200" as="sourcePoint"/>
                        <mxPoint x="750" y="250" as="targetPoint"/>
                        <mxPoint as="offset"/>
                    </mxGeometry>
                </mxCell>
                <mxCell id="conn-6" value="Slack Events" style="endArrow=classic;html=1;rounded=0;strokeWidth=2;strokeColor=#7b1fa2;" edge="1" parent="1" source="slack-client" target="slack-handler">
                    <mxGeometry width="50" height="50" relative="1" as="geometry">
                        <mxPoint x="610" y="200" as="sourcePoint"/>
                        <mxPoint x="370" y="410" as="targetPoint"/>
                        <mxPoint as="offset"/>
                    </mxGeometry>
                </mxCell>
                <mxCell id="conn-7" value="" style="endArrow=classic;html=1;rounded=0;strokeWidth=2;strokeColor=#f57c00;" edge="1" parent="1" source="api-gateway" target="backend-api">
                    <mxGeometry width="50" height="50" relative="1" as="geometry">
                        <mxPoint x="550" y="340" as="sourcePoint"/>
                        <mxPoint x="250" y="410" as="targetPoint"/>
                    </mxGeometry>
                </mxCell>
                <mxCell id="conn-8" value="" style="endArrow=classic;html=1;rounded=0;strokeWidth=2;strokeColor=#388e3c;" edge="1" parent="1" source="backend-api" target="notion-service">
                    <mxGeometry width="50" height="50" relative="1" as="geometry">
                        <mxPoint x="170" y="500" as="sourcePoint"/>
                        <mxPoint x="170" y="580" as="targetPoint"/>
                    </mxGeometry>
                </mxCell>
                <mxCell id="conn-9" value="" style="endArrow=classic;html=1;rounded=0;strokeWidth=2;strokeColor=#388e3c;" edge="1" parent="1" source="slack-handler" target="jira-service">
                    <mxGeometry width="50" height="50" relative="1" as="geometry">
                        <mxPoint x="370" y="500" as="sourcePoint"/>
                        <mxPoint x="370" y="580" as="targetPoint"/>
                    </mxGeometry>
                </mxCell>
                <mxCell id="conn-10" value="" style="endArrow=classic;html=1;rounded=0;strokeWidth=2;strokeColor=#388e3c;" edge="1" parent="1" source="ai-connector" target="task-assigner">
                    <mxGeometry width="50" height="50" relative="1" as="geometry">
                        <mxPoint x="570" y="500" as="sourcePoint"/>
                        <mxPoint x="570" y="580" as="targetPoint"/>
                    </mxGeometry>
                </mxCell>
                <mxCell id="conn-11" value="HTTP API" style="endArrow=classic;html=1;rounded=0;strokeWidth=2;strokeColor=#d32f2f;" edge="1" parent="1" source="ai-connector" target="ai-server">
                    <mxGeometry width="50" height="50" relative="1" as="geometry">
                        <mxPoint x="670" y="450" as="sourcePoint"/>
                        <mxPoint x="1120" y="450" as="targetPoint"/>
                        <mxPoint as="offset"/>
                    </mxGeometry>
                </mxCell>
                <mxCell id="conn-12" value="SQL" style="endArrow=classic;html=1;rounded=0;strokeWidth=2;strokeColor=#558b2f;" edge="1" parent="1" source="backend-api" target="postgresql">
                    <mxGeometry width="50" height="50" relative="1" as="geometry">
                        <mxPoint x="170" y="500" as="sourcePoint"/>
                        <mxPoint x="155" y="750" as="targetPoint"/>
                        <mxPoint as="offset"/>
                    </mxGeometry>
                </mxCell>
                <mxCell id="conn-13" value="Redis Protocol" style="endArrow=classic;html=1;rounded=0;strokeWidth=2;strokeColor=#558b2f;" edge="1" parent="1" source="slack-handler" target="redis">
                    <mxGeometry width="50" height="50" relative="1" as="geometry">
                        <mxPoint x="370" y="500" as="sourcePoint"/>
                        <mxPoint x="345" y="750" as="targetPoint"/>
                        <mxPoint as="offset"/>
                    </mxGeometry>
                </mxCell>
                <mxCell id="conn-14" value="File I/O" style="endArrow=classic;html=1;rounded=0;strokeWidth=2;strokeColor=#558b2f;" edge="1" parent="1" source="file-processor" target="file-storage">
                    <mxGeometry width="50" height="50" relative="1" as="geometry">
                        <mxPoint x="770" y="500" as="sourcePoint"/>
                        <mxPoint x="535" y="750" as="targetPoint"/>
                        <mxPoint as="offset"/>
                    </mxGeometry>
                </mxCell>
                <mxCell id="conn-15" value="REST API" style="endArrow=classic;html=1;rounded=0;strokeWidth=2;strokeColor=#616161;" edge="1" parent="1" source="notion-service" target="notion-api">
                    <mxGeometry width="50" height="50" relative="1" as="geometry">
                        <mxPoint x="270" y="620" as="sourcePoint"/>
                        <mxPoint x="1060" y="800" as="targetPoint"/>
                        <mxPoint as="offset"/>
                    </mxGeometry>
                </mxCell>
                <mxCell id="conn-16" value="REST API" style="endArrow=classic;html=1;rounded=0;strokeWidth=2;strokeColor=#616161;" edge="1" parent="1" source="jira-service" target="jira-api">
                    <mxGeometry width="50" height="50" relative="1" as="geometry">
                        <mxPoint x="470" y="620" as="sourcePoint"/>
                        <mxPoint x="1240" y="800" as="targetPoint"/>
                        <mxPoint as="offset"/>
                    </mxGeometry>
                </mxCell>
                <mxCell id="conn-17" value="WebSocket" style="endArrow=classic;html=1;rounded=0;strokeWidth=2;strokeColor=#616161;" edge="1" parent="1" source="slack-handler" target="slack-api">
                    <mxGeometry width="50" height="50" relative="1" as="geometry">
                        <mxPoint x="460" y="450" as="sourcePoint"/>
                        <mxPoint x="880" y="800" as="targetPoint"/>
                        <mxPoint as="offset"/>
                    </mxGeometry>
                </mxCell>
                <mxCell id="conn-18" value="" style="endArrow=none;dashed=1;html=1;rounded=0;strokeColor=#00796b;" edge="1" parent="1" source="backend-api" target="logging">
                    <mxGeometry width="50" height="50" relative="1" as="geometry">
                        <mxPoint x="260" y="450" as="sourcePoint"/>
                        <mxPoint x="1120" y="620" as="targetPoint"/>
                    </mxGeometry>
                </mxCell>
                <mxCell id="tech-stack" value="🛠 기술 스택 정보&#10;&#10;백엔드: Node.js 18+, TypeScript, Express&#10;프론트엔드: React 18, Tailwind CSS&#10;데이터베이스: PostgreSQL 14+, Redis 6+&#10;AI 엔진: Python 3.9+, FastAPI, CUDA&#10;외부 연동: OAuth 2.0, REST API, WebSocket&#10;모니터링: Winston, Custom Metrics&#10;배포: Docker, Kubernetes" style="rounded=1;whiteSpace=wrap;html=1;fillColor=#f0f0f0;strokeColor=#666666;fontSize=11;align=left;verticalAlign=top;" vertex="1" parent="1">
                    <mxGeometry x="50" y="920" width="350" height="150" as="geometry"/>
                </mxCell>
                <mxCell id="port-info" value="🔌 포트 정보&#10;&#10;웹 대시보드: 3000&#10;백엔드 API: 3500&#10;PostgreSQL: 5432&#10;Redis: 6379&#10;AI 서버: Runpod (외부)&#10;&#10;통신 프로토콜:&#10;• HTTP/HTTPS (REST API)&#10;• WebSocket (실시간 알림)&#10;• OAuth 2.0 (외부 인증)" style="rounded=1;whiteSpace=wrap;html=1;fillColor=#e8f5e8;strokeColor=#388e3c;fontSize=11;align=left;verticalAlign=top;" vertex="1" parent="1">
                    <mxGeometry x="450" y="920" width="300" height="150" as="geometry"/>
                </mxCell>
                <mxCell id="scalability-note" value="📈 확장성 고려사항&#10;&#10;수평 확장:&#10;• 백엔드 API 다중 인스턴스&#10;• 로드 밸런서 도입&#10;• 마이크로서비스 분리&#10;&#10;성능 최적화:&#10;• Redis 클러스터&#10;• 데이터베이스 읽기 복제본&#10;• CDN을 통한 정적 파일 제공&#10;• API 응답 캐싱" style="rounded=1;whiteSpace=wrap;html=1;fillColor=#fff3e0;strokeColor=#f57c00;fontSize=11;align=left;verticalAlign=top;" vertex="1" parent="1">
                    <mxGeometry x="800" y="920" width="300" height="150" as="geometry"/>
                </mxCell>
                <mxCell id="security-note" value="🔐 보안 고려사항&#10;&#10;인증/인가:&#10;• OAuth 2.0 외부 인증&#10;• JWT 토큰 기반 세션&#10;• 멀티테넌트 데이터 격리&#10;&#10;보안 조치:&#10;• HTTPS 강제&#10;• CORS 정책 적용&#10;• Rate Limiting&#10;• 입력 데이터 검증&#10;• 민감 데이터 암호화" style="rounded=1;whiteSpace=wrap;html=1;fillColor=#ffebee;strokeColor=#d32f2f;fontSize=11;align=left;verticalAlign=top;" vertex="1" parent="1">
                    <mxGeometry x="1150" y="920" width="300" height="150" as="geometry"/>
                </mxCell>
            </root>
        </mxGraphModel>
    </diagram>
</mxfile>